<svg width="166" height="162" viewBox="0 0 166 162" fill="none" xmlns="http://www.w3.org/2000/svg">
<path d="M145.25 67.5002C145.25 114.75 83 155.25 83 155.25C83 155.25 20.75 114.75 20.75 67.5002C20.75 51.3883 27.3085 35.9363 38.9826 24.5435C50.6567 13.1507 66.4903 6.75024 83 6.75024C99.5097 6.75024 115.343 13.1507 127.017 24.5435C138.692 35.9363 145.25 51.3883 145.25 67.5002Z" fill="#F7922E"/>
<path d="M83 87.7498C94.4599 87.7498 103.75 78.6835 103.75 67.4998C103.75 56.316 94.4599 47.2498 83 47.2498C71.5401 47.2498 62.25 56.316 62.25 67.4998C62.25 78.6835 71.5401 87.7498 83 87.7498Z" fill="#F2F2F2" stroke="#F7922E" stroke-width="2" stroke-linecap="round" stroke-linejoin="round"/>
</svg>
