<svg width="47" height="54" viewBox="0 0 47 54" fill="none" xmlns="http://www.w3.org/2000/svg">
<g filter="url(#filter0_d)">
<path d="M41.125 19.1667C41.125 32.5834 23.5 44.0834 23.5 44.0834C23.5 44.0834 5.875 32.5834 5.875 19.1667C5.875 14.5918 7.73191 10.2042 11.0372 6.96916C14.3426 3.73415 18.8256 1.91675 23.5 1.91675C28.1744 1.91675 32.6574 3.73415 35.9628 6.96916C39.2681 10.2042 41.125 14.5918 41.125 19.1667Z" fill="#FEC036" stroke="#FEC036" stroke-width="2" stroke-linecap="round" stroke-linejoin="round"/>
<path d="M23.5 24.9165C26.7447 24.9165 29.375 22.3421 29.375 19.1665C29.375 15.9909 26.7447 13.4165 23.5 13.4165C20.2553 13.4165 17.625 15.9909 17.625 19.1665C17.625 22.3421 20.2553 24.9165 23.5 24.9165Z" fill="#F2F2F2" stroke="#FEC036" stroke-width="2" stroke-linecap="round" stroke-linejoin="round"/>
</g>
<defs>
<filter id="filter0_d" x="-4" y="0" width="55" height="54" filterUnits="userSpaceOnUse" color-interpolation-filters="sRGB">
<feFlood flood-opacity="0" result="BackgroundImageFix"/>
<feColorMatrix in="SourceAlpha" type="matrix" values="0 0 0 0 0 0 0 0 0 0 0 0 0 0 0 0 0 0 127 0" result="hardAlpha"/>
<feOffset dy="4"/>
<feGaussianBlur stdDeviation="2"/>
<feColorMatrix type="matrix" values="0 0 0 0 0 0 0 0 0 0 0 0 0 0 0 0 0 0 0.25 0"/>
<feBlend mode="normal" in2="BackgroundImageFix" result="effect1_dropShadow"/>
<feBlend mode="normal" in="SourceGraphic" in2="effect1_dropShadow" result="shape"/>
</filter>
</defs>
</svg>
